<svg width="69.000000" height="69.000000" viewBox="0 0 69 69" fill="none" xmlns="http://www.w3.org/2000/svg" xmlns:xlink="http://www.w3.org/1999/xlink">
	<desc>
			Created with Pixso.
	</desc>
	<defs>
		<clipPath id="clip60_1741">
			<rect id="24-hours" width="69.000000" height="69.000000" fill="white"/>
		</clipPath>
	</defs>
	<g clip-path="url(#clip60_1741)">
		<path id="Vector" d="M60.0878 11.9955L59.7074 5.57019C59.6394 4.51062 58.7565 3.69556 57.6833 3.76343C56.6238 3.83142 55.8223 4.72791 55.8767 5.78748L55.9854 7.67566C50.443 3.53259 43.7189 1.27759 36.6552 1.27759C28.0156 1.27759 19.8923 4.64648 13.7931 10.7457C13.046 11.4928 13.046 12.7018 13.7931 13.4625C14.8256 14.4949 16.1296 13.8429 16.51 13.4625C21.8893 8.08325 29.0481 5.10828 36.6687 5.10828C42.7273 5.10828 48.4869 6.98291 53.2957 10.4604L51.6384 10.5691C50.5789 10.6371 49.7773 11.5336 49.8318 12.5931C49.8861 13.6119 50.7418 14.3998 51.7471 14.3998C51.7878 14.3998 58.281 14.0194 58.281 14.0194C59.3406 13.9515 60.1421 13.0551 60.0878 11.9955Z" fill-rule="nonzero" fill="#0D1C41"/>
		<path id="Vector" d="M29.2792 61.1427C15.6135 57.4886 6.9469 44.4343 8.3053 30.7958L9.21545 32.1678C9.58215 32.7247 10.7504 33.3904 11.8643 32.7112C12.7609 32.1543 12.9918 30.9453 12.4077 30.0623L8.87585 24.683C8.59058 24.2618 8.15588 23.963 7.66687 23.8544C7.16418 23.7593 6.64795 23.8544 6.22693 24.126L0.861206 27.658C-0.0217285 28.2421 -0.266357 29.4238 0.317871 30.3068C0.901978 31.1898 2.08374 31.4343 2.96667 30.8502L4.55603 29.8042C2.69507 45.5074 12.5979 60.6401 28.2875 64.8376C28.4504 64.8784 30.1484 65.0821 30.6376 63.4792C30.95 62.4739 30.3115 61.4144 29.2792 61.1427Z" fill-rule="nonzero" fill="#0D1C41"/>
		<path id="Vector" d="M67.8986 25.24C67.627 24.2212 66.5674 23.6099 65.5486 23.8816C64.5298 24.1532 63.9185 25.2128 64.1902 26.2316C67.8442 39.8972 60.8892 53.9432 48.3918 59.5806L49.1254 58.0999C49.6008 57.149 49.2205 56.0079 48.2695 55.5325C47.3187 55.0571 46.1641 55.4374 45.7021 56.3883L42.8224 62.1344C42.3469 63.0853 42.7273 64.2263 43.6781 64.7018L49.4242 67.5816C49.6959 67.7174 51.231 68.057 51.9916 66.7258C52.5214 65.8021 52.0867 64.6339 51.1359 64.1584L49.4106 63.289C63.9457 57.0675 72.0961 40.9432 67.8986 25.24Z" fill-rule="nonzero" fill="#0D1C41"/>
		<path id="Vector" d="M27.8119 40.4949L31.2623 36.8951C32.6071 35.496 34.7805 33.5127 34.7805 30.6193C34.7805 28.8125 33.395 24.7781 28.5726 24.7781C24.9049 24.7781 22.4598 27.6035 21.5632 28.9891L24.9729 31.0132C26.046 29.3016 27.187 28.4458 28.3824 28.4458C30.7053 28.4458 30.6238 30.0487 30.6238 30.6871C30.6238 32.3716 28.6134 34.2598 27.486 35.4144L21.8893 41.147L21.8893 44.312L35.3511 44.312L35.3511 40.4949L27.8119 40.4949Z" fill-rule="nonzero" fill="#0D1C41"/>
		<path id="Vector" d="M49.5873 36.0529L49.5873 32.7247L45.4985 32.7247L45.4985 36.0529L42.7953 36.0529L49.2612 25.2128L44.6292 25.2128L37.8235 36.4875L37.8235 39.7341L45.4985 39.7341L45.4985 44.2985L49.5873 44.2985L49.5873 39.7341L51.7472 39.7341L51.7472 36.0529L49.5873 36.0529Z" fill-rule="nonzero" fill="#0D1C41"/>
		<path id="Vector" d="M56.3928 22.754C55.7407 22.754 55.1566 23.0121 54.6405 23.5419L54.6405 20.499L52.9153 20.499L52.9153 29.0298L54.6405 29.0298L54.6405 25.6881C54.6405 25.1991 54.7627 24.2211 55.9309 24.2211C56.6238 24.2211 56.9769 24.6965 56.9769 25.6473L56.9769 29.0298L58.7021 29.0298L58.7021 25.2806C58.7021 24.0581 57.9414 22.754 56.3928 22.754Z" fill-rule="nonzero" fill="#0D1C41"/>
	</g>
</svg>
