<svg width="94.452637" height="69.387939" viewBox="0 0 94.4526 69.3879" fill="none" xmlns="http://www.w3.org/2000/svg" xmlns:xlink="http://www.w3.org/1999/xlink">
	<desc>
			Created with Pixso.
	</desc>
	<defs/>
	<path id="Vector 1" d="M5.79224 6.45435C-9.83545 17.1707 21.9028 45.1166 28.0425 47.3491C34.1819 49.5817 37.4639 43.5317 30.9087 37.152C22.4609 28.9305 11.9319 61.7101 23.6528 67.2916C33.0295 71.7567 47.5774 47.9072 48.2109 43.2915C48.8445 38.6759 45.4202 33.8032 45.4202 33.8032C38.7227 20.2218 21.4202 -4.26196 5.79224 6.45435Z" stroke="#000000" stroke-width="3.000000"/>
	<path id="Vector 2" d="M88.6604 4.22192C104.288 14.9382 72.5498 42.8842 66.4102 45.1167C60.2708 47.3492 56.9888 41.2993 63.5439 34.9196C71.9917 26.6981 82.5208 59.4777 70.7998 65.0591C61.4231 69.5242 46.8752 45.6748 46.2417 41.0591C45.6082 36.4435 49.0325 31.5708 49.0325 31.5708C55.73 17.9894 73.0325 -6.49438 88.6604 4.22192Z" stroke="#000000" stroke-width="3.000000"/>
</svg>
