<svg width="68.000000" height="68.000000" viewBox="0 0 68 68" fill="none" xmlns="http://www.w3.org/2000/svg" xmlns:xlink="http://www.w3.org/1999/xlink">
	<desc>
			Created with Pixso.
	</desc>
	<defs>
		<clipPath id="clip60_1774">
			<rect id="calendar 1" width="68.000000" height="68.000000" fill="white"/>
		</clipPath>
	</defs>
	<g clip-path="url(#clip60_1774)">
		<path id="Vector" d="M53.9219 27.8906C53.9219 29.3577 52.7327 30.5469 51.2656 30.5469C49.7986 30.5469 48.6094 29.3577 48.6094 27.8906C48.6094 26.4236 49.7986 25.2344 51.2656 25.2344C52.7327 25.2344 53.9219 26.4236 53.9219 27.8906Z" fill-rule="evenodd" fill="#000000"/>
		<path id="Vector" d="M42.3672 27.8906C42.3672 29.3577 41.178 30.5469 39.7109 30.5469C38.2439 30.5469 37.0547 29.3577 37.0547 27.8906C37.0547 26.4236 38.2439 25.2344 39.7109 25.2344C41.178 25.2344 42.3672 26.4236 42.3672 27.8906Z" fill-rule="evenodd" fill="#000000"/>
		<path id="Vector" d="M19.2578 51C19.2578 52.467 18.0686 53.6562 16.6016 53.6562C15.1345 53.6562 13.9453 52.467 13.9453 51C13.9453 49.533 15.1345 48.3438 16.6016 48.3438C18.0686 48.3438 19.2578 49.533 19.2578 51Z" fill-rule="evenodd" fill="#000000"/>
		<path id="Vector" d="M19.2578 27.8906C19.2578 29.3577 18.0686 30.5469 16.6016 30.5469C15.1345 30.5469 13.9453 29.3577 13.9453 27.8906C13.9453 26.4236 15.1345 25.2344 16.6016 25.2344C18.0686 25.2344 19.2578 26.4236 19.2578 27.8906Z" fill-rule="evenodd" fill="#000000"/>
		<path id="Vector" d="M19.2578 39.4453C19.2578 40.9124 18.0686 42.1016 16.6016 42.1016C15.1345 42.1016 13.9453 40.9124 13.9453 39.4453C13.9453 37.9783 15.1345 36.7891 16.6016 36.7891C18.0686 36.7891 19.2578 37.9783 19.2578 39.4453Z" fill-rule="evenodd" fill="#000000"/>
		<path id="Vector" d="M30.8125 39.4453C30.8125 40.9124 29.6233 42.1016 28.1562 42.1016C26.6892 42.1016 25.5 40.9124 25.5 39.4453C25.5 37.9783 26.6892 36.7891 28.1562 36.7891C29.6233 36.7891 30.8125 37.9783 30.8125 39.4453Z" fill-rule="evenodd" fill="#000000"/>
		<path id="Vector" d="M30.8125 27.8906C30.8125 29.3577 29.6233 30.5469 28.1562 30.5469C26.6892 30.5469 25.5 29.3577 25.5 27.8906C25.5 26.4236 26.6892 25.2344 28.1562 25.2344C29.6233 25.2344 30.8125 26.4236 30.8125 27.8906Z" fill-rule="evenodd" fill="#000000"/>
		<path id="Vector" d="M30.8125 51C30.8125 52.467 29.6233 53.6562 28.1562 53.6562C26.6892 53.6562 25.5 52.467 25.5 51C25.5 49.533 26.6892 48.3438 28.1562 48.3438C29.6233 48.3438 30.8125 49.533 30.8125 51Z" fill-rule="evenodd" fill="#000000"/>
		<rect id="Rectangle 37" x="39.148193" y="38.518555" rx="6.000000" width="13.000000" height="12.999996" stroke="#000000" stroke-width="4.000000"/>
		<rect id="Rectangle 38" x="2.000000" y="7.037109" rx="16.000000" width="64.000000" height="58.962963" stroke="#000000" stroke-width="4.000000"/>
		<path id="Line 21" d="M15.8518 0L15.8518 13.8518" stroke="#000000" stroke-width="4.000000" stroke-linecap="round"/>
		<path id="Line 22" d="M34.7407 0L34.7407 13.8518" stroke="#000000" stroke-width="4.000000" stroke-linecap="round"/>
		<path id="Line 23" d="M52.3704 0L52.3704 13.8518" stroke="#000000" stroke-width="4.000000" stroke-linecap="round"/>
	</g>
</svg>
