<svg width="76.000000" height="74.000000" viewBox="0 0 76 74" fill="none" xmlns="http://www.w3.org/2000/svg" xmlns:xlink="http://www.w3.org/1999/xlink">
	<desc>
			Created with Pixso.
	</desc>
	<defs>
		<clipPath id="clip60_1794">
			<rect id="insurance 1" width="76.000000" height="74.000000" fill="white"/>
		</clipPath>
	</defs>
	<g clip-path="url(#clip60_1794)">
		<path id="Vector" d="M41.5625 64.75L41.5625 70.5312C41.5625 70.8379 41.6876 71.132 41.9103 71.3488C42.1331 71.5657 42.4351 71.6875 42.75 71.6875L68.875 71.6875C69.1899 71.6875 69.4919 71.5657 69.7147 71.3488C69.9374 71.132 70.0625 70.8379 70.0625 70.5312L70.0625 64.75C70.0625 64.4434 69.9374 64.1492 69.7147 63.9324C69.4919 63.7156 69.1899 63.5938 68.875 63.5938L68.875 49.7188C68.875 49.5801 68.8494 49.4426 68.7994 49.3127L66.3927 43.0638C65.965 41.964 65.2045 41.0166 64.2118 40.3468C63.2191 39.6769 62.041 39.3163 60.8333 39.3125L49.875 39.3125L49.875 31.5925C51.7307 32.4506 53.8469 32.6091 55.8157 32.0375C57.0564 32.3978 58.3665 32.4708 59.6414 32.2509C60.9163 32.0309 62.1207 31.524 63.1588 30.7706C64.1969 30.0172 65.0399 29.0381 65.6206 27.9114C66.2013 26.7845 66.5037 25.5413 66.5035 24.2806C66.5034 23.0199 66.2008 21.7767 65.62 20.65C65.0391 19.5233 64.1959 18.5443 63.1577 17.7911C62.1195 17.0378 60.9149 16.5311 59.6399 16.3114C58.365 16.0917 57.0549 16.1649 55.8143 16.5254C53.8462 15.9532 51.7301 16.1117 49.875 16.97L49.875 5.78125C49.8739 4.86157 49.4982 3.97998 48.8303 3.32971C48.1625 2.67932 47.257 2.3136 46.3125 2.3125L22.5625 2.3125C21.618 2.3136 20.7125 2.67932 20.0447 3.32971C19.3768 3.97998 19.0011 4.86157 19 5.78125L19 31.2188L18.988 31.2188C18.049 31.2153 17.1339 31.5068 16.3785 32.05C15.6232 32.5933 15.0679 33.3591 14.795 34.234L10.74 47.0662C10.7207 47.1276 10.7067 47.1904 10.6979 47.254L8.46094 63.5938L8.3125 63.5938C7.99756 63.5938 7.69556 63.7156 7.47278 63.9324C7.25012 64.1492 7.125 64.4434 7.125 64.75L7.125 70.5312C7.125 70.8379 7.25012 71.132 7.47278 71.3488C7.69556 71.5657 7.99756 71.6875 8.3125 71.6875L34.4375 71.6875C34.7524 71.6875 35.0544 71.5657 35.2772 71.3488C35.4999 71.132 35.625 70.8379 35.625 70.5312L35.625 64.75C35.6249 64.5063 35.5458 64.269 35.3989 64.0717C35.2521 63.8745 35.045 63.7274 34.8073 63.6516L36.5206 57.8125L38.4984 57.8125L42.0312 63.8315C41.8856 63.939 41.7676 64.0778 41.6862 64.2372C41.6049 64.3965 41.5625 64.5721 41.5625 64.75ZM67.6875 69.375L43.9375 69.375L43.9375 65.9062L67.6875 65.9062L67.6875 69.375ZM58.1875 18.5C59.3618 18.5 60.5098 18.8391 61.4862 19.4744C62.4626 20.1096 63.2236 21.0125 63.673 22.0688C64.1224 23.1252 64.24 24.2877 64.0109 25.4091C63.7819 26.5305 63.2163 27.5607 62.386 28.3693C61.5555 29.1777 60.4976 29.7284 59.3458 29.9514C58.1941 30.1744 57.0002 30.0601 55.9153 29.6224C54.8303 29.1848 53.9031 28.4438 53.2506 27.4932C52.5983 26.5424 52.25 25.4247 52.25 24.2812C52.2517 22.7485 52.8779 21.2791 53.991 20.1952C55.1041 19.1113 56.6133 18.5017 58.1875 18.5ZM52.2596 18.6146C50.7316 20.1254 49.875 22.1608 49.875 24.2812C49.875 26.4017 50.7316 28.4371 52.2596 29.9479C50.9163 29.6835 49.7083 28.9747 48.8405 27.9419C47.9727 26.9091 47.4985 25.6157 47.4985 24.2812C47.4985 22.9468 47.9727 21.6534 48.8405 20.6206C49.7083 19.5878 50.9163 18.879 52.2596 18.6146ZM33.25 69.375L9.5 69.375L9.5 65.9062L33.25 65.9062L33.25 69.375ZM32.3544 63.5938L10.8563 63.5938L13.0383 47.6544L17.0643 34.9139C17.2114 34.4492 17.5309 34.0542 17.9606 33.806C18.3901 33.5579 18.8993 33.4742 19.3888 33.5714C19.8782 33.6685 20.3131 33.9395 20.6088 34.3314C20.9044 34.7235 21.0397 35.2086 20.9883 35.6924L19.0112 49.5598C18.9824 49.7631 19.0096 49.9702 19.0901 50.1599C19.1705 50.3497 19.3014 50.5153 19.4691 50.6395C19.5237 50.6801 24.9375 54.7425 24.9375 58.9689C24.9375 59.2756 25.0626 59.5696 25.2853 59.7865C25.5081 60.0033 25.8101 60.1251 26.125 60.1251C26.4399 60.1251 26.7419 60.0033 26.9647 59.7865C27.1874 59.5696 27.3125 59.2756 27.3125 58.9689C27.3113 58.5817 27.2798 58.1952 27.2183 57.8126L34.0507 57.8126L32.3544 63.5938ZM38.1128 55.5L26.5149 55.5C25.1975 52.5399 22.5975 50.1742 21.4558 49.2323L23.344 35.9932C23.3455 35.9828 23.3468 35.9724 23.348 35.9618C23.4381 35.1742 23.3013 34.3778 22.9528 33.6616C22.6044 32.9456 22.058 32.338 21.375 31.907L21.375 5.78125C21.3754 5.47473 21.5006 5.18079 21.7231 4.96399C21.9458 4.74731 22.2477 4.62537 22.5625 4.625L27.7661 4.625L28.6255 6.29834C28.724 6.49048 28.8756 6.65198 29.0632 6.76477C29.2509 6.87769 29.467 6.9375 29.6875 6.9375L39.1875 6.9375C39.408 6.9375 39.6241 6.87769 39.8118 6.76477C39.9994 6.65198 40.151 6.49048 40.2495 6.29834L41.1089 4.625L46.3125 4.625C46.6273 4.62537 46.9292 4.74731 47.1519 4.96399C47.3744 5.18079 47.4996 5.47473 47.5 5.78125L47.5 18.6246C45.9778 20.1344 45.125 22.1655 45.125 24.2812C45.125 26.397 45.9778 28.4281 47.5 29.9379L47.5 39.3125L46.064 39.3125L40.0739 26.9993C39.7062 26.2421 39.1072 25.614 38.3588 25.2009C37.6105 24.788 36.7494 24.6101 35.8932 24.6919C37.655 23.363 41.5625 19.7535 41.5625 13.875C41.5625 13.6753 41.5094 13.479 41.4083 13.3053C41.3074 13.1316 41.1619 12.9862 40.986 12.8835L35.0485 9.41479C34.8639 9.30688 34.6527 9.25 34.4375 9.25C34.2223 9.25 34.0111 9.30688 33.8265 9.41479L27.889 12.8835C27.7141 12.9857 27.5692 13.13 27.4683 13.3026C27.3672 13.4752 27.3136 13.6702 27.3125 13.8688C27.3107 14.1791 27.3447 21.5105 33.8289 25.2744C33.8779 25.3027 33.929 25.3275 33.9817 25.3486C33.2117 25.8474 32.6332 26.5806 32.3364 27.4333C32.0398 28.2863 32.0416 29.2108 32.3417 30.0625L27.3125 30.0625C26.9976 30.0625 26.6956 30.1843 26.4728 30.4011C26.2501 30.618 26.125 30.9121 26.125 31.2188L26.125 40.4688C26.125 40.7754 26.2501 41.0695 26.4728 41.2864C26.6956 41.5032 26.9976 41.625 27.3125 41.625L37.5203 41.625L38.5593 43.9375L27.3125 43.9375C26.9976 43.9375 26.6956 44.0593 26.4728 44.2761C26.2501 44.493 26.125 44.7871 26.125 45.0938L26.125 49.7188C26.125 50.0254 26.2501 50.3195 26.4728 50.5364C26.6956 50.7532 26.9976 50.875 27.3125 50.875L38.5878 50.875L38.1128 55.5ZM34.4105 22.8878C30.6536 20.3234 29.8848 16.0916 29.7278 14.5062L34.4375 11.7546L39.1682 14.5183C38.8936 19.0806 35.7513 21.8895 34.4105 22.8878ZM36.4812 39.3125L28.5 39.3125L28.5 32.375L33.364 32.375L36.4812 39.3125ZM38.8253 48.5625L28.5 48.5625L28.5 46.25L39.0629 46.25L38.8253 48.5625ZM40.4069 56.4034L41.5565 45.2094C41.5768 45.0121 41.5446 44.813 41.4629 44.6312L34.6405 29.4467C34.4508 29.0236 34.4396 28.5449 34.6091 28.1138C34.7788 27.6827 35.1157 27.3339 35.5471 27.1425C35.9786 26.9512 36.4701 26.9327 36.9154 27.0912C37.3607 27.2495 37.7242 27.5721 37.9274 27.9893L47.6143 47.9012C47.7491 48.1785 47.9915 48.3921 48.2881 48.4951C48.5847 48.5983 48.9113 48.5825 49.1959 48.4512C49.4805 48.3199 49.7 48.0839 49.8059 47.7952C49.9117 47.5063 49.8955 47.1884 49.7607 46.9113L47.1882 41.625L50.3279 41.625L53.5621 47.9233C53.6312 48.0604 53.7274 48.1827 53.8452 48.2834C53.963 48.384 54.1001 48.4611 54.2485 48.5098C54.3971 48.5586 54.554 48.5784 54.7103 48.5677C54.8667 48.5573 55.0194 48.5167 55.1595 48.4485C55.2997 48.3802 55.4246 48.2856 55.5271 48.1702C55.6295 48.0547 55.7075 47.9205 55.7565 47.7756C55.8054 47.6306 55.8245 47.4777 55.8124 47.3256C55.8004 47.1733 55.7576 47.025 55.6863 46.8892L52.9839 41.625L56.2661 41.625L59.5005 47.9233C59.5695 48.0604 59.6656 48.1827 59.7834 48.2834C59.9012 48.384 60.0383 48.4611 60.1868 48.5098C60.3353 48.5586 60.4922 48.5784 60.6486 48.5677C60.8049 48.5573 60.9576 48.5167 61.0978 48.4485C61.2379 48.3802 61.3628 48.2856 61.4653 48.1702C61.5677 48.0547 61.6458 47.9205 61.6947 47.7756C61.7437 47.6306 61.7627 47.4777 61.7506 47.3256C61.7386 47.1733 61.6958 47.025 61.6245 46.8892L58.9214 41.625L60.8333 41.625C61.558 41.6272 62.265 41.8435 62.8607 42.2454C63.4564 42.6472 63.9128 43.2157 64.1696 43.8756L66.5 49.9285L66.5 63.5938L44.6266 63.5938L40.4069 56.4034Z" fill-rule="nonzero" fill="#000000"/>
		<path id="Vector" d="M55.8125 26.5938C55.8125 26.9004 55.9376 27.1945 56.1603 27.4114C56.3831 27.6282 56.6851 27.75 57 27.75L58.1875 27.75C58.8174 27.75 59.4215 27.5063 59.8668 27.0726C60.3123 26.639 60.5625 26.0508 60.5625 25.4375C60.5625 24.8242 60.3123 24.236 59.8668 23.8024C59.4215 23.3687 58.8174 23.125 58.1875 23.125L59.375 23.125C59.6899 23.125 59.9919 23.0032 60.2147 22.7864C60.4374 22.5695 60.5625 22.2754 60.5625 21.9688C60.5625 21.6621 60.4374 21.368 60.2147 21.1511C59.9919 20.9343 59.6899 20.8125 59.375 20.8125L58.1875 20.8125C57.5576 20.8125 56.9535 21.0562 56.5082 21.4899C56.0627 21.9235 55.8125 22.5117 55.8125 23.125C55.8125 23.7383 56.0627 24.3265 56.5082 24.7601C56.9535 25.1938 57.5576 25.4375 58.1875 25.4375L57 25.4375C56.6851 25.4375 56.3831 25.5593 56.1603 25.7761C55.9376 25.993 55.8125 26.2871 55.8125 26.5938Z" fill-rule="nonzero" fill="#000000"/>
	</g>
</svg>
