<svg width="53.000000" height="58.000000" viewBox="0 0 53 58" fill="none" xmlns="http://www.w3.org/2000/svg" xmlns:xlink="http://www.w3.org/1999/xlink">
	<desc>
			Created with Pixso.
	</desc>
	<defs>
		<clipPath id="clip60_1712">
			<rect id="logos 1" width="53.000000" height="58.000000" fill="white"/>
		</clipPath>
	</defs>
	<g clip-path="url(#clip60_1712)">
		<path id="Vector" d="M26.5 6.44446L26.5 0L42.1923 15.3333C42.449 15.5841 42.451 15.9957 42.1969 16.2493L39.8781 18.5612C39.6279 18.8105 39.2231 18.8131 38.9698 18.5669L26.5 6.44446Z" fill-rule="nonzero" fill="#313C48"/>
		<path id="Vector" d="M26.4999 6.44446L26.4999 0L10.8077 15.3333C10.5509 15.5841 10.5488 15.9957 10.8031 16.2493L13.1218 18.5612C13.3719 18.8105 13.7767 18.8131 14.03 18.5669L26.4999 6.44446Z" fill-rule="nonzero" fill="#535D69"/>
		<path id="Vector" d="M26.8231 31.2556L19.2197 23.9778C18.9585 23.7278 18.9542 23.3125 19.2103 23.0571L21.2098 21.0635C21.4565 20.8175 21.8544 20.8112 22.109 21.0491L26.8231 25.4556L26.8231 31.2556Z" fill-rule="nonzero" fill="#DDD0A4"/>
		<path id="Vector" d="M26.8231 31.2556L34.4265 23.9778C34.6877 23.7278 34.692 23.3125 34.4359 23.0571L32.4364 21.0635C32.1897 20.8175 31.7917 20.8112 31.5372 21.0491L26.8231 25.4556L26.8231 31.2556Z" fill-rule="nonzero" fill="#A89060"/>
		<path id="Vector" d="M26.2782 12.2444L23.079 15.4342C22.8265 15.6859 22.8265 16.0939 23.079 16.3456L26.2782 19.5354L26.2782 12.2444Z" fill-rule="evenodd" fill="#DDD0A4"/>
		<path id="Vector" d="M26.2781 12.2444L29.4773 15.4342C29.7297 15.6859 29.7297 16.0939 29.4773 16.3456L26.2781 19.5354L26.2781 12.2444Z" fill-rule="evenodd" fill="#A89060"/>
		<path id="Vector" d="M26.2163 34.8C20.7228 34.8 15.8472 37.4552 12.7946 41.5565C16.6388 38.7402 21.0922 37.0781 26.2163 37.0781C30.7999 37.0781 35.3578 38.4081 38.9601 40.7046C35.8893 37.0913 31.3195 34.8 26.2163 34.8Z" fill-rule="nonzero" fill="#313C48"/>
		<path id="Vector" d="M12.7946 41.5565C15.8472 37.4552 20.7228 34.8 26.2163 34.8L26.2163 37.0781C21.0922 37.0781 16.6388 38.7402 12.7946 41.5565Z" fill-rule="evenodd" fill="#535D69"/>
		<path id="Vector" d="M1.95044 49.373C1.92773 49.7079 1.88989 49.9784 1.83679 50.1848C1.78381 50.3888 1.698 50.5612 1.57935 50.7021L1.57935 50.7324L3.96521 50.7324L3.96521 46.9261L2.10571 46.9261L1.95044 49.373ZM0.99231 51.5555L0.99231 52.6317L0.102295 52.6317L0.102295 50.7324L0.492432 50.7324C0.676636 50.6166 0.809204 50.4479 0.890015 50.2264C0.970825 50.0023 1.02258 49.6978 1.04529 49.3126L1.24219 46.1067L4.93848 46.1067L4.93848 50.7324L5.62024 50.7324L5.62024 52.6317L4.73401 52.6317L4.73401 51.5555L0.99231 51.5555ZM9.85803 50.7324L9.85803 51.5555L6.3208 51.5555L6.3208 46.1067L9.85803 46.1067L9.85803 46.9299L7.29785 46.9299L7.29785 48.4026L9.7179 48.4026L9.7179 49.1766L7.29785 49.1766L7.29785 50.7324L9.85803 50.7324ZM15.1525 51.5555L14.1753 51.5555L14.1753 46.9261L12.4371 46.9261L12.2894 49.4448C12.2465 50.1722 12.1038 50.7135 11.8615 51.0685C11.619 51.4209 11.2491 51.5972 10.7518 51.5972C10.6104 51.5972 10.4917 51.582 10.3958 51.5518L10.3958 50.6984C10.4716 50.7161 10.5498 50.7249 10.6306 50.7249C10.8806 50.7249 11.0623 50.6191 11.1759 50.4077C11.2896 50.1937 11.359 49.8539 11.3843 49.3882L11.5623 46.1067L15.1525 46.1067L15.1525 51.5555ZM18.5988 46.0161C19.394 46.0161 20.024 46.2692 20.4885 46.7751C20.9557 47.2811 21.1892 47.967 21.1892 48.833C21.1892 49.699 20.9557 50.385 20.4885 50.891C20.024 51.3945 19.394 51.6462 18.5988 51.6462C17.8009 51.6462 17.1685 51.3945 16.7014 50.891C16.2368 50.385 16.0045 49.699 16.0045 48.833C16.0045 47.967 16.2368 47.2811 16.7014 46.7751C17.1685 46.2692 17.8009 46.0161 18.5988 46.0161ZM19.7615 47.3868C19.4736 47.0269 19.0861 46.8469 18.5988 46.8469C18.1115 46.8469 17.724 47.0256 17.4362 47.3831C17.1483 47.7405 17.0044 48.2239 17.0044 48.833C17.0044 49.4397 17.1483 49.9218 17.4362 50.2793C17.724 50.6367 18.1115 50.8156 18.5988 50.8156C19.0861 50.8156 19.4736 50.6367 19.7615 50.2793C20.0492 49.9218 20.1931 49.4397 20.1931 48.833C20.1931 48.2264 20.0492 47.7443 19.7615 47.3868ZM28.3204 48.7009L30.6912 51.5555L29.4679 51.5555L27.4191 49.0709L27.3888 49.0709L27.3888 51.5555L26.4343 51.5555L26.4343 49.0709L26.4042 49.0709L24.3401 51.5555L23.1471 51.5555L25.499 48.7123L23.3101 46.1067L24.4462 46.1067L26.4042 48.4895L26.4343 48.4895L26.4343 46.1067L27.3888 46.1067L27.3888 48.4895L27.4191 48.4895L29.3807 46.1067L30.498 46.1067L28.3204 48.7009ZM34.9365 51.5555L34.9365 47.6361L34.8873 47.6361L32.2325 51.5555L31.2858 51.5555L31.2858 46.1067L32.259 46.1067L32.259 50.0376L32.3082 50.0376L34.9594 46.1067L35.906 46.1067L35.906 51.5555L34.9365 51.5555ZM38.042 49.1653L38.042 48.38L38.7692 48.38C39.0671 48.38 39.3082 48.3031 39.4926 48.1495C39.6768 47.9961 39.769 47.7959 39.769 47.5492C39.769 47.3051 39.6819 47.1124 39.5077 46.9714C39.3359 46.828 39.0999 46.7562 38.7994 46.7562C38.4965 46.7562 38.2516 46.8306 38.0648 46.979C37.8779 47.1276 37.7744 47.3302 37.7542 47.5869L36.8416 47.5869C36.8668 47.0911 37.0574 46.6984 37.4133 46.4088C37.7693 46.1168 38.2402 45.9708 38.8259 45.9708C39.3839 45.9708 39.8384 46.108 40.1893 46.3824C40.5403 46.6543 40.7157 47.0067 40.7157 47.4397C40.7157 47.7443 40.6211 48.0125 40.4318 48.244C40.2423 48.4756 39.9962 48.6254 39.6932 48.6934L39.6932 48.7235C40.0593 48.7664 40.3496 48.9086 40.5643 49.1503C40.7789 49.392 40.8862 49.6965 40.8862 50.064C40.8862 50.5298 40.688 50.9175 40.2916 51.2271C39.8977 51.5367 39.4028 51.6915 38.807 51.6915C38.1986 51.6915 37.7024 51.5417 37.3187 51.2422C36.9374 50.9426 36.7343 50.5461 36.709 50.0527L37.6482 50.0527C37.6683 50.307 37.7832 50.5096 37.9928 50.6606C38.205 50.8092 38.4775 50.8834 38.8108 50.8834C39.1315 50.8834 39.3903 50.8029 39.5872 50.6417C39.7841 50.4806 39.8826 50.2692 39.8826 50.0074C39.8826 49.743 39.7854 49.5366 39.5909 49.3882C39.399 49.2396 39.1315 49.1653 38.7881 49.1653L38.042 49.1653ZM46.2943 51.5555L45.3209 51.5555L45.3209 49.1918L42.6624 49.1918L42.6624 51.5555L41.6853 51.5555L41.6853 46.1067L42.6624 46.1067L42.6624 48.3723L45.3209 48.3723L45.3209 46.1067L46.2943 46.1067L46.2943 51.5555ZM50.9866 51.5555L50.9866 47.6361L50.9373 47.6361L48.2825 51.5555L47.3357 51.5555L47.3357 46.1067L48.3091 46.1067L48.3091 50.0376L48.3583 50.0376L51.0093 46.1067L51.9561 46.1067L51.9561 51.5555L50.9866 51.5555Z" fill-rule="nonzero" fill="#313C48"/>
		<path id="Vector" d="M9.72168 55.3688L9.27478 55.3688C9.24829 55.2744 9.19836 55.1976 9.12524 55.1384C9.052 55.0793 8.95923 55.0497 8.8468 55.0497C8.69788 55.0497 8.57922 55.1095 8.49084 55.2291C8.40381 55.3474 8.36023 55.5078 8.36023 55.7106C8.36023 55.9156 8.40381 56.0774 8.49084 56.1957C8.57922 56.3127 8.69849 56.3713 8.84875 56.3713C8.96106 56.3713 9.05383 56.3436 9.12708 56.2883C9.20154 56.2329 9.25208 56.1548 9.27856 56.0542L9.72546 56.0542C9.69641 56.2656 9.60303 56.4349 9.44519 56.562C9.2887 56.6879 9.08862 56.7507 8.84497 56.7507C8.55078 56.7507 8.31726 56.6577 8.14429 56.4713C7.97131 56.2852 7.88489 56.0315 7.88489 55.7106C7.88489 55.3933 7.97131 55.1404 8.14429 54.9515C8.31726 54.7627 8.54956 54.6683 8.84119 54.6683C9.08606 54.6683 9.28674 54.7344 9.44336 54.8666C9.59985 54.9988 9.69263 55.1661 9.72168 55.3688ZM11.568 54.7098L11.568 55.0724L10.9506 55.0724L10.9506 56.7112L10.4829 56.7112L10.4829 55.0724L9.8656 55.0724L9.8656 54.7098L11.568 54.7098ZM12.9635 54.6759C13.2185 54.6759 13.421 54.7684 13.5713 54.9535C13.7216 55.1384 13.7966 55.3909 13.7966 55.7106C13.7966 56.0289 13.7222 56.2806 13.5732 56.4657C13.4242 56.6508 13.2235 56.7433 12.9711 56.7433C12.8271 56.7433 12.7003 56.7112 12.5905 56.647C12.4806 56.5815 12.3979 56.4922 12.3424 56.3789L12.3329 56.3789L12.3329 57.3701L11.8615 57.3701L11.8615 54.7098L12.3215 54.7098L12.3215 55.0554L12.3311 55.0554C12.3892 54.937 12.473 54.8445 12.5829 54.7778C12.6927 54.7098 12.8196 54.6759 12.9635 54.6759ZM12.8196 56.358C12.9723 56.358 13.0929 56.3002 13.1813 56.1843C13.2697 56.0674 13.3137 55.9094 13.3137 55.7106C13.3137 55.5129 13.2689 55.3556 13.1793 55.2385C13.0909 55.1215 12.9711 55.0629 12.8196 55.0629C12.6731 55.0629 12.5551 55.1221 12.4655 55.2404C12.3759 55.3588 12.3303 55.5154 12.3291 55.7106C12.3303 55.9069 12.3759 56.0642 12.4655 56.1825C12.5551 56.2996 12.6731 56.358 12.8196 56.358ZM14.8741 56.3883C15.0092 56.3883 15.1228 56.3486 15.215 56.2694C15.3083 56.1888 15.3551 56.0887 15.3551 55.9691L15.3551 55.8162L14.8911 55.8446C14.7776 55.8521 14.6892 55.8804 14.626 55.9296C14.5642 55.9773 14.5333 56.0409 14.5333 56.1202C14.5333 56.202 14.5642 56.2675 14.626 56.3165C14.6892 56.3644 14.7719 56.3883 14.8741 56.3883ZM14.7321 56.7433C14.5364 56.7433 14.3755 56.6873 14.2493 56.5752C14.1243 56.4631 14.0618 56.3177 14.0618 56.139C14.0618 55.9615 14.1274 55.8213 14.2587 55.718C14.3912 55.6149 14.58 55.5557 14.8248 55.5405L15.3551 55.5104L15.3551 55.3669C15.3551 55.2625 15.3217 55.1813 15.2548 55.1233C15.1891 55.0654 15.0975 55.0365 14.9802 55.0365C14.8702 55.0365 14.7808 55.061 14.7112 55.1101C14.6418 55.1592 14.5995 55.226 14.5844 55.3103L14.147 55.3103C14.1571 55.1201 14.2385 54.9659 14.3912 54.8477C14.5453 54.7281 14.7479 54.6683 14.9991 54.6683C15.2478 54.6683 15.4465 54.7288 15.5956 54.8496C15.7457 54.9703 15.8208 55.1315 15.8208 55.3329L15.8208 56.7112L15.3665 56.7112L15.3665 56.3921L15.3569 56.3921C15.3002 56.499 15.2144 56.5846 15.0994 56.6488C14.9846 56.7118 14.8621 56.7433 14.7321 56.7433ZM17.0195 55.9937L17.01 55.9937L16.5935 56.7112L16.0917 56.7112L16.7393 55.7124L16.0974 54.7098L16.6276 54.7098L17.0327 55.4122L17.0422 55.4122L17.4418 54.7098L17.9587 54.7098L17.313 55.6992L17.9512 56.7112L17.4362 56.7112L17.0195 55.9937ZM19.7822 56.4733C19.6068 56.6583 19.3707 56.7507 19.074 56.7507C18.7775 56.7507 18.5413 56.6583 18.3658 56.4733C18.1904 56.287 18.1027 56.0327 18.1027 55.7106C18.1027 55.3895 18.191 55.136 18.3678 54.9496C18.5444 54.7621 18.7799 54.6683 19.074 54.6683C19.3695 54.6683 19.6049 54.7621 19.7804 54.9496C19.9572 55.136 20.0455 55.3895 20.0455 55.7106C20.0455 56.0327 19.9578 56.287 19.7822 56.4733ZM18.7142 56.2032C18.8026 56.3203 18.9226 56.3789 19.074 56.3789C19.2256 56.3789 19.3455 56.3203 19.4338 56.2032C19.5222 56.0862 19.5664 55.922 19.5664 55.7106C19.5664 55.5004 19.5222 55.3367 19.4338 55.2196C19.3455 55.1013 19.2256 55.0422 19.074 55.0422C18.9238 55.0422 18.804 55.1013 18.7142 55.2196C18.626 55.3367 18.5817 55.5004 18.5817 55.7106C18.5817 55.922 18.626 56.0862 18.7142 56.2032ZM21.2271 55.0289L20.8464 55.0289L20.8464 55.5273L21.191 55.5273C21.4132 55.5273 21.5244 55.443 21.5244 55.2744C21.5244 55.1963 21.4984 55.136 21.4467 55.0931C21.3962 55.0504 21.323 55.0289 21.2271 55.0289ZM21.2195 55.8257L20.8464 55.8257L20.8464 56.3921L21.2573 56.3921C21.3698 56.3921 21.4556 56.3682 21.5149 56.3203C21.5742 56.2712 21.6039 56.2008 21.6039 56.1089C21.6039 55.92 21.4757 55.8257 21.2195 55.8257ZM20.3844 56.7112L20.3844 54.7098L21.3369 54.7098C21.5388 54.7098 21.6973 54.7551 21.8121 54.8458C21.927 54.9352 21.9845 55.0591 21.9845 55.2178C21.9845 55.3221 21.9503 55.4159 21.8822 55.499C21.8153 55.5808 21.7319 55.6305 21.6323 55.6482L21.6323 55.6633C21.7648 55.6809 21.8716 55.7325 21.9523 55.8181C22.0331 55.9037 22.0735 56.0088 22.0735 56.1334C22.0735 56.3109 22.0084 56.4519 21.8784 56.5564C21.7496 56.6595 21.5742 56.7112 21.3521 56.7112L20.3844 56.7112ZM23.1566 56.3883C23.2916 56.3883 23.4053 56.3486 23.4974 56.2694C23.5908 56.1888 23.6376 56.0887 23.6376 55.9691L23.6376 55.8162L23.1736 55.8446C23.0601 55.8521 22.9717 55.8804 22.9086 55.9296C22.8467 55.9773 22.8158 56.0409 22.8158 56.1202C22.8158 56.202 22.8467 56.2675 22.9086 56.3165C22.9717 56.3644 23.0543 56.3883 23.1566 56.3883ZM23.0145 56.7433C22.819 56.7433 22.658 56.6873 22.5317 56.5752C22.4067 56.4631 22.3442 56.3177 22.3442 56.139C22.3442 55.9615 22.4099 55.8213 22.5411 55.718C22.6737 55.6149 22.8625 55.5557 23.1074 55.5405L23.6376 55.5104L23.6376 55.3669C23.6376 55.2625 23.6041 55.1813 23.5372 55.1233C23.4716 55.0654 23.3801 55.0365 23.2627 55.0365C23.1528 55.0365 23.0632 55.061 22.9938 55.1101C22.9243 55.1592 22.882 55.226 22.8669 55.3103L22.4294 55.3103C22.4396 55.1201 22.521 54.9659 22.6737 54.8477C22.8278 54.7281 23.0304 54.6683 23.2816 54.6683C23.5303 54.6683 23.7291 54.7288 23.8781 54.8496C24.0283 54.9703 24.1034 55.1315 24.1034 55.3329L24.1034 56.7112L23.6489 56.7112L23.6489 56.3921L23.6394 56.3921C23.5826 56.499 23.4968 56.5846 23.382 56.6488C23.2671 56.7118 23.1447 56.7433 23.0145 56.7433ZM25.3096 55.6973L25.6581 55.6973L25.6581 55.0686L25.3096 55.0686C25.201 55.0686 25.1145 55.0975 25.0502 55.1554C24.9871 55.2134 24.9556 55.292 24.9556 55.3914C24.9556 55.4808 24.9877 55.5544 25.0521 55.6123C25.1165 55.6689 25.2023 55.6973 25.3096 55.6973ZM25.6581 56.7112L25.6581 56.0409L25.3892 56.0409L24.9214 56.7112L24.395 56.7112L24.9347 55.9673C24.7946 55.9244 24.6847 55.8534 24.6052 55.7539C24.527 55.6532 24.4878 55.5331 24.4878 55.3933C24.4878 55.1831 24.5585 55.017 24.6998 54.8949C24.8425 54.7715 25.0337 54.7098 25.2736 54.7098L26.12 54.7098L26.12 56.7112L25.6581 56.7112ZM28.2371 55.6444L29.1271 56.7112L28.5496 56.7112L27.8035 55.8162L27.7883 55.8162L27.7883 56.7112L27.3187 56.7112L27.3187 54.7098L27.7883 54.7098L27.7883 55.5444L27.8035 55.5444L28.5381 54.7098L29.0873 54.7098L28.2371 55.6444ZM30.9089 56.4733C30.7334 56.6583 30.4974 56.7507 30.2007 56.7507C29.9041 56.7507 29.668 56.6583 29.4926 56.4733C29.317 56.287 29.2294 56.0327 29.2294 55.7106C29.2294 55.3895 29.3177 55.136 29.4944 54.9496C29.6711 54.7621 29.9066 54.6683 30.2007 54.6683C30.4961 54.6683 30.7316 54.7621 30.9071 54.9496C31.0837 55.136 31.1721 55.3895 31.1721 55.7106C31.1721 56.0327 31.0844 56.287 30.9089 56.4733ZM29.8409 56.2032C29.9293 56.3203 30.0492 56.3789 30.2007 56.3789C30.3523 56.3789 30.4722 56.3203 30.5604 56.2032C30.6488 56.0862 30.693 55.922 30.693 55.7106C30.693 55.5004 30.6488 55.3367 30.5604 55.2196C30.4722 55.1013 30.3523 55.0422 30.2007 55.0422C30.0505 55.0422 29.9305 55.1013 29.8409 55.2196C29.7526 55.3367 29.7084 55.5004 29.7084 55.7106C29.7084 55.922 29.7526 56.0862 29.8409 56.2032ZM31.9598 56.7112L31.5111 56.7112L31.5111 54.7098L32.1113 54.7098L32.704 56.1069L32.7192 56.1069L33.3119 54.7098L33.9026 54.7098L33.9026 56.7112L33.4539 56.7112L33.4539 55.3424L33.4387 55.3424L32.8726 56.6187L32.5393 56.6187L31.9731 55.3424L31.9598 55.3424L31.9598 56.7112ZM35.6239 56.7112L35.6239 55.0724L34.7946 55.0724L34.7946 56.7112L34.325 56.7112L34.325 54.7098L36.0955 54.7098L36.0955 56.7112L35.6239 56.7112ZM37.2523 56.3883C37.3875 56.3883 37.5011 56.3486 37.5933 56.2694C37.6866 56.1888 37.7334 56.0887 37.7334 55.9691L37.7334 55.8162L37.2694 55.8446C37.1558 55.8521 37.0675 55.8804 37.0044 55.9296C36.9425 55.9773 36.9116 56.0409 36.9116 56.1202C36.9116 56.202 36.9425 56.2675 37.0044 56.3165C37.0675 56.3644 37.1501 56.3883 37.2523 56.3883ZM37.1104 56.7433C36.9147 56.7433 36.7538 56.6873 36.6274 56.5752C36.5026 56.4631 36.4401 56.3177 36.4401 56.139C36.4401 55.9615 36.5057 55.8213 36.637 55.718C36.7695 55.6149 36.9583 55.5557 37.2032 55.5405L37.7334 55.5104L37.7334 55.3669C37.7334 55.2625 37.7 55.1813 37.6331 55.1233C37.5674 55.0654 37.4758 55.0365 37.3584 55.0365C37.2487 55.0365 37.1589 55.061 37.0896 55.1101C37.0201 55.1592 36.9778 55.226 36.9626 55.3103L36.5253 55.3103C36.5354 55.1201 36.6168 54.9659 36.7695 54.8477C36.9236 54.7281 37.1261 54.6683 37.3774 54.6683C37.6261 54.6683 37.825 54.7288 37.9739 54.8496C38.1241 54.9703 38.1992 55.1315 38.1992 55.3329L38.1992 56.7112L37.7448 56.7112L37.7448 56.3921L37.7352 56.3921C37.6785 56.499 37.5927 56.5846 37.4778 56.6488C37.3628 56.7118 37.2405 56.7433 37.1104 56.7433ZM39.9299 56.7112L39.9299 55.8616L39.0815 55.8616L39.0815 56.7112L38.6121 56.7112L38.6121 54.7098L39.0815 54.7098L39.0815 55.499L39.9299 55.499L39.9299 54.7098L40.3995 54.7098L40.3995 56.7112L39.9299 56.7112ZM41.2858 56.7112L40.8237 56.7112L40.8237 54.7098L41.2858 54.7098L41.2858 56.0466L41.3009 56.0466L42.1738 54.7098L42.6359 54.7098L42.6359 56.7112L42.1738 56.7112L42.1738 55.365L42.1587 55.365L41.2858 56.7112ZM43.8516 55.6973L44.2 55.6973L44.2 55.0686L43.8516 55.0686C43.7429 55.0686 43.6565 55.0975 43.592 55.1554C43.5291 55.2134 43.4974 55.292 43.4974 55.3914C43.4974 55.4808 43.5297 55.5544 43.594 55.6123C43.6584 55.6689 43.7443 55.6973 43.8516 55.6973ZM44.2 56.7112L44.2 56.0409L43.931 56.0409L43.4634 56.7112L42.937 56.7112L43.4766 55.9673C43.3364 55.9244 43.2267 55.8534 43.1471 55.7539C43.0688 55.6532 43.0297 55.5331 43.0297 55.3933C43.0297 55.1831 43.1005 55.017 43.2418 54.8949C43.3844 54.7715 43.5757 54.7098 43.8156 54.7098L44.662 54.7098L44.662 56.7112L44.2 56.7112Z" fill-rule="nonzero" fill="#A89060"/>
	</g>
</svg>
